<svg width="286" height="111" viewBox="0 0 286 111" fill="none" xmlns="http://www.w3.org/2000/svg">
<path d="M0 40C0 17.9086 17.9086 0 40 0H266C277.046 0 286 8.95431 286 20V71C286 93.0914 268.091 111 246 111H20C8.95431 111 0 102.046 0 91V40Z" fill="#65AAAA"/>
<path d="M30.765 59.63C26.025 59.6 22.155 58.085 19.155 55.085C16.185 52.085 14.7 48.14 14.7 43.25C14.7 38.33 16.185 34.37 19.155 31.37C22.155 28.37 26.115 26.87 31.035 26.87C35.055 26.87 38.61 27.89 41.7 29.93L42.6 36.275H42.195C41.535 33.695 40.2 31.715 38.19 30.335C36.18 28.925 33.795 28.22 31.035 28.22C27.105 28.22 23.955 29.585 21.585 32.315C19.245 35.045 18.075 38.66 18.075 43.16C18.075 47.66 19.23 51.29 21.54 54.05C23.88 56.78 26.955 58.19 30.765 58.28C34.125 58.28 36.93 57.365 39.18 55.535C41.61 53.555 43.08 50.33 43.59 45.86H43.95L43.41 52.925C40.68 57.395 36.465 59.63 30.765 59.63ZM55.9995 33.17C58.3095 31.97 60.8445 31.37 63.6045 31.37C66.3945 31.37 68.9445 31.97 71.2545 33.17C73.5645 34.34 75.3945 36.005 76.7445 38.165C78.1245 40.325 78.8145 42.77 78.8145 45.5C78.8145 48.23 78.1245 50.675 76.7445 52.835C75.3945 54.995 73.5645 56.675 71.2545 57.875C68.9445 59.045 66.5745 59.63 64.1445 59.63C61.7145 59.63 59.5695 59.285 57.7095 58.595C55.8495 57.905 54.2295 56.945 52.8495 55.715C51.4995 54.485 50.4195 52.985 49.6095 51.215C48.8295 49.445 48.4395 47.375 48.4395 45.005C48.4395 42.605 49.1145 40.325 50.4645 38.165C51.8445 36.005 53.6895 34.34 55.9995 33.17ZM55.1445 54.725C57.4245 57.095 60.2445 58.28 63.6045 58.28C66.9645 58.28 69.7845 57.095 72.0645 54.725C74.3445 52.325 75.4845 49.25 75.4845 45.5C75.4845 41.75 74.3445 38.69 72.0645 36.32C69.7845 33.92 66.9645 32.72 63.6045 32.72C60.2445 32.72 57.4245 33.92 55.1445 36.32C52.8945 38.69 51.7695 41.75 51.7695 45.5C51.7695 49.25 52.8945 52.325 55.1445 54.725ZM90.8481 33.17C93.1581 31.97 95.6931 31.37 98.4531 31.37C101.243 31.37 103.793 31.97 106.103 33.17C108.413 34.34 110.243 36.005 111.593 38.165C112.973 40.325 113.663 42.77 113.663 45.5C113.663 48.23 112.973 50.675 111.593 52.835C110.243 54.995 108.413 56.675 106.103 57.875C103.793 59.045 101.423 59.63 98.9931 59.63C96.5631 59.63 94.4181 59.285 92.5581 58.595C90.6981 57.905 89.0781 56.945 87.6981 55.715C86.3481 54.485 85.2681 52.985 84.4581 51.215C83.6781 49.445 83.2881 47.375 83.2881 45.005C83.2881 42.605 83.9631 40.325 85.3131 38.165C86.6931 36.005 88.5381 34.34 90.8481 33.17ZM89.9931 54.725C92.2731 57.095 95.0931 58.28 98.4531 58.28C101.813 58.28 104.633 57.095 106.913 54.725C109.193 52.325 110.333 49.25 110.333 45.5C110.333 41.75 109.193 38.69 106.913 36.32C104.633 33.92 101.813 32.72 98.4531 32.72C95.0931 32.72 92.2731 33.92 89.9931 36.32C87.7431 38.69 86.6181 41.75 86.6181 45.5C86.6181 49.25 87.7431 52.325 89.9931 54.725ZM143.533 59H141.868C138.928 59 136.723 58.145 135.253 56.435L125.353 45.59L135.028 34.205C135.358 33.785 135.403 33.395 135.163 33.035C134.953 32.645 134.578 32.45 134.038 32.45H133.633V32H142.813V32.45H142.633C140.803 32.45 139.348 32.99 138.268 34.07L128.458 44.555L139.618 56.705C140.158 57.365 140.713 57.83 141.283 58.1C141.853 58.37 142.603 58.52 143.533 58.55V59ZM126.433 58.55H126.928V59H117.703V58.55H118.243C118.963 58.55 119.578 58.31 120.088 57.83C120.598 57.35 120.868 56.78 120.898 56.12V34.88C120.868 34.22 120.598 33.65 120.088 33.17C119.578 32.69 118.963 32.45 118.243 32.45H117.703V32H126.928V32.45H126.388C125.428 32.45 124.678 32.84 124.138 33.62C123.898 33.98 123.778 34.385 123.778 34.835V56.165C123.778 56.825 124.033 57.395 124.543 57.875C125.083 58.325 125.713 58.55 126.433 58.55Z" fill="#E5E5E5"/>
<path d="M150.68 93H139.7L139.745 92.55H140.285C141.065 92.55 141.725 92.28 142.265 91.74C142.835 91.2 143.135 90.54 143.165 89.76V64.74C143.165 63.96 142.88 63.3 142.31 62.76C141.74 62.22 141.065 61.95 140.285 61.95H139.745L139.7 61.5H148.655C151.745 61.5 154.145 62.19 155.855 63.57C157.565 64.92 158.42 66.735 158.42 69.015C158.42 70.815 157.94 72.315 156.98 73.515C156.02 74.685 154.85 75.465 153.47 75.855C155.84 76.215 157.715 77.19 159.095 78.78C160.475 80.37 161.165 82.38 161.165 84.81C161.165 87.21 160.235 89.175 158.375 90.705C156.545 92.235 153.98 93 150.68 93ZM146.09 91.38H150.5C150.53 91.38 150.56 91.38 150.59 91.38C152.87 91.38 154.64 90.765 155.9 89.535C157.16 88.275 157.79 86.505 157.79 84.225C157.79 82.935 157.565 81.81 157.115 80.85C156.695 79.86 156.155 79.08 155.495 78.51C153.755 77.07 151.145 76.35 147.665 76.35C147.665 76.35 147.65 76.35 147.62 76.35V75.945C147.65 75.945 147.785 75.945 148.025 75.945C148.295 75.945 148.67 75.915 149.15 75.855C149.63 75.795 150.17 75.69 150.77 75.54C151.37 75.39 151.91 75.15 152.39 74.82C152.87 74.49 153.32 74.1 153.74 73.65C154.61 72.66 155.045 71.19 155.045 69.24C155.045 67.26 154.475 65.715 153.335 64.605C152.225 63.495 150.605 62.94 148.475 62.94H146.09V91.38ZM173.177 67.17C175.487 65.97 178.022 65.37 180.782 65.37C183.572 65.37 186.122 65.97 188.432 67.17C190.742 68.34 192.572 70.005 193.922 72.165C195.302 74.325 195.992 76.77 195.992 79.5C195.992 82.23 195.302 84.675 193.922 86.835C192.572 88.995 190.742 90.675 188.432 91.875C186.122 93.045 183.752 93.63 181.322 93.63C178.892 93.63 176.747 93.285 174.887 92.595C173.027 91.905 171.407 90.945 170.027 89.715C168.677 88.485 167.597 86.985 166.787 85.215C166.007 83.445 165.617 81.375 165.617 79.005C165.617 76.605 166.292 74.325 167.642 72.165C169.022 70.005 170.867 68.34 173.177 67.17ZM172.322 88.725C174.602 91.095 177.422 92.28 180.782 92.28C184.142 92.28 186.962 91.095 189.242 88.725C191.522 86.325 192.662 83.25 192.662 79.5C192.662 75.75 191.522 72.69 189.242 70.32C186.962 67.92 184.142 66.72 180.782 66.72C177.422 66.72 174.602 67.92 172.322 70.32C170.072 72.69 168.947 75.75 168.947 79.5C168.947 83.25 170.072 86.325 172.322 88.725ZM208.026 67.17C210.336 65.97 212.871 65.37 215.631 65.37C218.421 65.37 220.971 65.97 223.281 67.17C225.591 68.34 227.421 70.005 228.771 72.165C230.151 74.325 230.841 76.77 230.841 79.5C230.841 82.23 230.151 84.675 228.771 86.835C227.421 88.995 225.591 90.675 223.281 91.875C220.971 93.045 218.601 93.63 216.171 93.63C213.741 93.63 211.596 93.285 209.736 92.595C207.876 91.905 206.256 90.945 204.876 89.715C203.526 88.485 202.446 86.985 201.636 85.215C200.856 83.445 200.466 81.375 200.466 79.005C200.466 76.605 201.141 74.325 202.491 72.165C203.871 70.005 205.716 68.34 208.026 67.17ZM207.171 88.725C209.451 91.095 212.271 92.28 215.631 92.28C218.991 92.28 221.811 91.095 224.091 88.725C226.371 86.325 227.511 83.25 227.511 79.5C227.511 75.75 226.371 72.69 224.091 70.32C221.811 67.92 218.991 66.72 215.631 66.72C212.271 66.72 209.451 67.92 207.171 70.32C204.921 72.69 203.796 75.75 203.796 79.5C203.796 83.25 204.921 86.325 207.171 88.725ZM260.71 93H259.045C256.105 93 253.9 92.145 252.43 90.435L242.53 79.59L252.205 68.205C252.535 67.785 252.58 67.395 252.34 67.035C252.13 66.645 251.755 66.45 251.215 66.45H250.81V66H259.99V66.45H259.81C257.98 66.45 256.525 66.99 255.445 68.07L245.635 78.555L256.795 90.705C257.335 91.365 257.89 91.83 258.46 92.1C259.03 92.37 259.78 92.52 260.71 92.55V93ZM243.61 92.55H244.105V93H234.88V92.55H235.42C236.14 92.55 236.755 92.31 237.265 91.83C237.775 91.35 238.045 90.78 238.075 90.12V68.88C238.045 68.22 237.775 67.65 237.265 67.17C236.755 66.69 236.14 66.45 235.42 66.45H234.88V66H244.105V66.45H243.565C242.605 66.45 241.855 66.84 241.315 67.62C241.075 67.98 240.955 68.385 240.955 68.835V90.165C240.955 90.825 241.21 91.395 241.72 91.875C242.26 92.325 242.89 92.55 243.61 92.55Z" fill="#E5E5E5"/>
</svg>
