<svg width="59" height="59" viewBox="0 0 59 59" fill="none" xmlns="http://www.w3.org/2000/svg">
<path d="M4.2 0C1.89636 0 0 1.89636 0 4.2V54.6C0 56.9036 1.89636 58.8 4.2 58.8H54.6C56.9036 58.8 58.8 56.9036 58.8 54.6V4.2C58.8 1.89636 56.9036 0 54.6 0H4.2ZM4.2 2.8H54.6C55.3764 2.8 56 3.42364 56 4.2V54.6C56 55.3764 55.3764 56 54.6 56H4.2C3.42364 56 2.8 55.3764 2.8 54.6V4.2C2.8 3.42364 3.42364 2.8 4.2 2.8ZM25.9 12.6C18.5712 12.6 12.6 18.5712 12.6 25.9C12.6 33.2288 18.5712 39.2 25.9 39.2C29.0615 39.2 31.9649 38.0825 34.2508 36.2305L45.2102 47.1898L47.1898 45.2102L36.2305 34.2508C38.0825 31.9649 39.2 29.0615 39.2 25.9C39.2 18.5712 33.2288 12.6 25.9 12.6ZM25.9 15.4C31.7156 15.4 36.4 20.0844 36.4 25.9C36.4 31.7156 31.7156 36.4 25.9 36.4C20.0844 36.4 15.4 31.7156 15.4 25.9C15.4 20.0844 20.0844 15.4 25.9 15.4Z" fill="#C38A8A"/>
</svg>
