<svg fill="#000000" xmlns="http://www.w3.org/2000/svg" viewBox="0 0 50 50" width="50px" height="50px"><path d="M 23 2 L 23 6.0859375 C 12.34376 7.0955257 3.9882813 16.082399 3.9882812 27 C 3.9882812 38.59235 13.40765 48.011719 25 48.011719 C 36.59235 48.011719 46.011719 38.59235 46.011719 27 C 46.011719 16.082399 37.656241 7.0955257 27 6.0859375 L 27 2 L 23 2 z M 42.042969 3 L 39.214844 5.828125 L 40.505859 7.1191406 L 39 8.6269531 L 40.658203 10.285156 L 42.164062 8.7773438 L 43.457031 10.070312 L 46.285156 7.2421875 L 42.042969 3 z M 25 8.0117188 C 35.49904 8.0117188 43.988281 16.50096 43.988281 27 C 43.988281 37.49904 35.49904 45.988281 25 45.988281 C 14.50096 45.988281 6.0117188 37.49904 6.0117188 27 C 6.0117188 16.50096 14.50096 8.0117187 25 8.0117188 z M 24.984375 11.974609 A 1.0116012 1.0116012 0 0 0 23.988281 13 L 23.988281 24.177734 A 3 3 0 0 0 22 27 A 3 3 0 0 0 23.988281 29.820312 L 23.988281 32 A 1.011719 1.011719 0 0 0 26.011719 32 L 26.011719 29.822266 A 3 3 0 0 0 28 27 A 3 3 0 0 0 26.011719 24.179688 L 26.011719 13 A 1.0116012 1.0116012 0 0 0 24.984375 11.974609 z"/></svg>