<svg width="16" height="20" viewBox="0 0 16 20" fill="none" xmlns="http://www.w3.org/2000/svg">
<path d="M6 0L5 1H1C0.448 1 0 1.448 0 2C0 2.552 0.448 3 1 3H15C15.552 3 16 2.552 16 2C16 1.448 15.552 1 15 1H11L10 0H6ZM1 5V18C1 19.1 1.9 20 3 20H13C14.1 20 15 19.1 15 18V5H1ZM5.41016 8.41406C5.66541 8.41406 5.92073 8.51058 6.11523 8.70508L8 10.5898L9.88477 8.70508C10.2738 8.31608 10.9059 8.31608 11.2949 8.70508C11.6839 9.09408 11.6839 9.72623 11.2949 10.1152L9.41016 12L11.2949 13.8848C11.6839 14.2738 11.6839 14.9059 11.2949 15.2949C10.9059 15.6839 10.2738 15.6839 9.88477 15.2949L8 13.4102L6.11523 15.2949C5.72623 15.6839 5.09408 15.6839 4.70508 15.2949C4.31608 14.9059 4.31608 14.2738 4.70508 13.8848L6.58984 12L4.70508 10.1152C4.31608 9.72623 4.31608 9.09408 4.70508 8.70508C4.89958 8.51058 5.15491 8.41406 5.41016 8.41406Z" fill="#E0F5F5"/>
</svg>
